<svg width="135" height="135" viewBox="0 0 135 135" fill="none" xmlns="http://www.w3.org/2000/svg">
<path d="M0 31.4849C0 27.8826 1.46052 24.6214 3.82171 22.2612C6.18161 19.9023 9.44119 18.4434 13.0415 18.4434H102.657C109.86 18.4434 115.699 24.2822 115.699 31.4849V121.1C115.699 124.701 114.24 127.96 111.881 130.32C109.521 132.681 106.259 134.142 102.657 134.142H13.0415C5.83889 134.142 0 128.303 0 121.1V31.4849Z" fill="#4B2B8F"/>
<path d="M134.142 13.0415C134.142 5.83889 128.303 0 121.101 0L102.657 18.4435C109.86 18.4435 115.699 24.2824 115.699 31.485L134.142 13.0415Z" fill="#4B2B8F"/>
<path d="M134.142 102.657V13.0415L115.699 31.485V121.101L134.142 102.657Z" fill="#4B2B8F"/>
<path d="M121.101 0H31.485L13.0415 18.4435H102.657L121.101 0Z" fill="#4B2B8F"/>
<path d="M130.324 111.877C132.683 109.517 134.142 106.257 134.142 102.657L115.699 121.1C115.699 124.701 114.24 127.96 111.881 130.32L130.324 111.877Z" fill="#4B2B8F"/>
<path d="M22.2652 3.81783C24.6251 1.45892 27.8847 0 31.485 0L13.0415 18.4435C9.44122 18.4435 6.18164 19.9024 3.82175 22.2613L22.2652 3.81783Z" fill="#4B2B8F"/>
<path d="M18.4435 13.0416C18.4435 9.44123 19.9024 6.18164 22.2613 3.82175L3.82171 22.2614C1.46052 24.6216 0 27.8827 0 31.485L18.4435 13.0416Z" fill="#4B2B8F"/>
<path d="M121.101 115.699C124.701 115.699 127.96 114.24 130.32 111.881L111.881 130.32C109.521 132.682 106.259 134.142 102.657 134.142L121.101 115.699Z" fill="#4B2B8F"/>
<path d="M31.485 115.699H121.101L102.657 134.142H13.0415L31.485 115.699Z" fill="#4B2B8F"/>
<path d="M18.4435 13.0415V102.657L0 121.101V31.485L18.4435 13.0415Z" fill="#4B2B8F"/>
<path d="M18.4435 102.657C18.4435 109.86 24.2824 115.698 31.485 115.698L13.0415 134.142C5.83889 134.142 0 128.303 0 121.1L18.4435 102.657Z" fill="#4B2B8F"/>
<rect x="18.4435" width="115.699" height="115.699" rx="10" fill="#2E1563"/>
</svg>
